<svg width="161" height="54" viewBox="0 0 161 54" fill="none" xmlns="http://www.w3.org/2000/svg">
<path d="M5.82 47.4C4.44 47.34 2.58 46.8 2.16 46.44C1.62 46.2 0.96 44.28 0.96 42.72V5.88C0.96 5.46 2.16 4.92 3.18 4.92C4.08 4.98 5.22 5.4 5.4 5.76L5.46 41.28C5.46 41.88 5.52 42.6 5.7 42.78C5.7 43.02 6.78 43.32 7.92 43.32C9.24 43.44 12.96 43.44 15.06 43.26C17.16 43.08 21.48 42.18 23.46 41.28C23.88 41.1 24.78 42 25.26 42.78C25.62 43.74 25.32 45.06 24.96 45.24C22.62 46.14 17.7 47.04 15.24 47.22C12.78 47.4 7.98 47.4 5.82 47.4ZM28.5 48.36L28.44 5.34C28.44 4.8 29.64 4.08 30.66 4.02C31.56 4.02 32.76 4.62 32.94 5.16V23.46C33.48 23.46 34.8 23.52 35.52 23.52C36.24 23.52 37.8 23.52 38.64 23.52V5.34C38.64 4.8 39.84 4.08 40.86 4.02C41.76 4.02 42.96 4.62 43.14 5.16V48.36C42.96 48.9 41.82 49.38 40.92 49.38C39.9 49.5 38.7 48.96 38.7 48.36V27.78C37.8 27.78 36.18 27.84 35.46 27.84C34.74 27.84 33.48 27.84 32.94 27.84V48.36C32.76 48.9 31.62 49.38 30.72 49.38C29.7 49.5 28.5 48.96 28.5 48.36ZM48.4247 12.42L48.3647 18.3C48.3047 20.82 49.1447 23.88 50.0447 24.54C50.8247 25.26 52.8047 25.92 53.9447 25.92C55.0247 25.92 56.8247 25.2 57.5447 24.3C58.2047 23.58 59.0447 20.52 59.0447 18.3V11.88C58.9247 9.6 57.9647 6.78 57.2447 6.18C56.4047 5.64 54.5447 5.04 53.4047 5.1C52.2047 5.22 50.4647 6.06 49.8047 6.84C49.0847 7.68 48.4247 10.44 48.4247 12.42ZM44.1647 10.5C44.1647 7.98 45.4847 4.2 46.7447 3C48.0047 1.92 51.1847 0.659999 53.1647 0.479998C55.0247 0.419999 58.5647 1.14 60.0047 2.4C61.5047 3.3 63.3647 7.02 63.4847 9.96L63.4247 19.98C63.3047 22.92 61.8647 27.06 60.5447 28.14C59.1047 29.34 55.9247 30.48 54.1247 30.48C52.2047 30.54 48.8447 29.52 47.4047 28.44C45.8447 27.48 44.1647 23.22 44.1647 19.98V10.5ZM82.8047 29.22C82.6247 29.76 81.4847 30.24 80.5847 30.24C79.5647 30.36 78.3647 29.82 78.3647 29.22L78.3047 1.38C78.3047 0.839997 79.5047 0.119999 80.5247 0.0599964C81.4247 0.0599964 82.6247 0.659999 82.8047 1.2V29.22ZM79.9847 45.18C76.7447 45.24 68.5847 45.24 64.9247 45.24C61.2647 45.24 56.1047 45.24 55.9247 45.24C55.5047 45.36 55.1447 46.02 55.1447 46.62V48.12C55.1447 48.6 55.3247 48.96 55.5047 49.08C55.6847 49.26 56.2247 49.38 56.7647 49.26H68.9447C71.3447 49.26 75.1847 49.2 76.6247 49.02C77.8847 48.96 80.6447 48.36 82.0247 47.88C82.6247 47.58 83.7047 48.48 84.0047 49.2C84.2447 49.92 84.1847 51.42 83.6447 51.72C82.0247 52.32 79.2047 52.98 77.4047 53.1C75.6047 53.28 71.7047 53.52 69.4247 53.52C68.7647 53.58 67.8647 53.64 67.2647 53.64C66.6047 53.64 64.8047 53.58 63.3047 53.58H54.6647C54.0647 53.58 52.8047 53.4 52.2647 53.22C51.5447 53.1 50.7047 51.78 50.7047 50.7V44.88C50.7047 44.4 50.7647 43.68 50.8247 43.38C50.8847 43.08 51.0647 42.6 51.1847 42.24C51.3647 41.64 53.4647 41.1 55.2647 41.22H77.2847C77.5247 41.22 78.6047 41.16 78.7847 41.04C78.7847 40.98 78.8447 40.8 78.8447 40.68C78.8447 40.56 78.9047 40.14 78.9647 39.78C78.9647 39.18 78.7847 38.46 78.6647 38.28C78.4247 38.22 77.7047 38.1 77.1647 38.1H52.4447C51.7847 38.16 51.1247 36.84 51.1247 36.06C51.0647 35.28 51.5447 33.96 52.0847 33.96H79.6247C80.4047 33.96 81.3647 34.2 81.6047 34.32C81.9047 34.44 82.2047 34.8 82.3847 34.86C82.8647 35.22 83.2847 36.96 83.2847 38.22C83.2247 40.68 83.1047 43.08 82.9247 43.62C82.5647 44.34 81.0647 45.12 79.9847 45.18ZM82.7906 13.32C82.7906 10.8 84.1706 7.08 85.4906 5.88C86.7506 4.8 90.4706 3.54 92.7506 3.36C94.9106 3.3 98.9306 4.26 100.551 5.28C102.051 6.36 103.851 10.14 103.971 12.84V24.9C103.851 27.9 102.291 31.98 100.971 33.06C99.5306 34.26 95.7506 35.4 93.7106 35.4C91.5506 35.46 87.5906 34.44 86.1506 33.36C84.5906 32.4 82.9106 28.14 82.9106 24.9L82.7906 13.32ZM87.0506 23.22C86.9906 25.68 87.8906 28.8 88.7906 29.46C89.5706 30.18 92.0906 30.84 93.5306 30.84C94.8506 30.84 97.2506 30.06 97.9706 29.22C98.6306 28.44 99.4706 25.44 99.4706 23.16V14.82C99.3506 12.84 98.4506 10.02 97.7306 9.24C96.8906 8.52 94.4306 7.92 92.9906 7.98C91.5506 8.1 89.1506 9 88.5506 9.72C87.8306 10.56 87.0506 13.32 87.0506 15.3V23.22ZM120.831 49.56C120.651 50.1 119.571 50.58 118.671 50.58C117.651 50.7 116.451 50.16 116.451 49.56C116.451 48.84 116.391 47.52 116.391 46.92C116.391 46.26 116.391 45.12 116.391 44.58C114.171 45.6 109.731 46.92 107.691 47.4C106.431 47.7 103.011 48.24 101.211 48.42C99.4106 48.6 95.9906 48.84 94.7306 48.78C94.1906 48.84 91.6106 48.78 89.8106 48.78C88.0106 48.78 83.7506 48.78 81.5306 48.78C80.9306 48.84 80.3306 47.52 80.2706 46.74C80.2706 45.96 80.8106 44.64 81.4706 44.58H91.1906C92.7506 44.64 97.3106 44.34 99.7106 44.1C102.111 43.86 106.371 43.2 107.691 42.9C110.031 42.42 114.351 40.62 116.391 39.54V4.14C116.391 3.6 117.591 2.94 118.611 2.88C119.511 2.88 120.591 3.42 120.771 3.96L120.831 49.56ZM129.217 5.28H120.817C120.217 5.28 119.677 4.02 119.677 3.18C119.677 2.4 120.217 1.08 120.757 1.08H142.597C143.317 1.08 143.917 2.4 143.917 3.18C143.857 4.02 143.197 5.28 142.657 5.28H133.777C133.657 6.9 133.477 10.5 133.417 12.12C133.297 13.8 132.997 16.56 132.757 17.34C134.737 19.92 139.897 24.48 143.137 26.76C143.557 27.18 143.317 28.44 142.777 29.16C142.057 30.06 140.857 30.6 140.497 30.24C137.677 28.44 132.097 23.94 130.477 21.72C129.877 22.8 128.077 25.5 126.997 26.76C125.857 28.08 123.277 30.42 121.897 31.2C121.537 31.38 120.877 31.32 120.697 31.14C120.517 31.08 120.037 30.72 119.917 30.36C119.737 30.18 119.377 29.46 119.317 29.1C119.137 28.74 119.197 27.96 119.497 27.66C120.997 26.7 123.457 24 124.477 22.56C125.437 21.12 126.997 18.42 127.657 17.4C128.137 16.5 128.737 13.74 128.857 12.18C128.977 10.56 129.097 7.02 129.217 5.28ZM159.577 29.7C159.397 30.24 158.257 30.72 157.357 30.72C156.337 30.84 155.137 30.3 155.137 29.7L155.077 1.38C155.077 0.839997 156.277 0.119999 157.297 0.0599964C158.197 0.0599964 159.397 0.659999 159.577 1.2V29.7ZM133.837 44.16V46.68C133.837 47.1 134.257 47.4 134.677 47.4C135.337 47.4 141.097 47.46 144.457 47.4C147.817 47.34 153.997 47.04 155.077 46.68C155.377 46.68 155.797 46.2 155.797 45.72V43.98C155.797 42.66 155.737 40.98 155.737 40.2C155.737 39.48 155.737 37.68 155.737 36.24C155.737 35.82 156.877 35.16 157.897 35.1C158.797 35.1 160.057 35.64 160.237 36.18C160.177 37.68 160.177 41.34 160.177 43.14C160.177 44.94 160.237 48.12 160.237 49.02C160.117 49.8 158.017 50.76 157.237 50.94C156.217 51.3 149.677 51.66 145.657 51.72C141.577 51.84 133.537 51.84 131.077 51.78C130.297 51.78 129.457 50.88 129.457 50.16V43.8C129.457 42.42 129.397 40.8 129.397 40.08C129.397 39.42 129.397 37.8 129.397 36.36C129.397 35.82 130.597 35.16 131.557 35.1C132.457 35.1 133.657 35.64 133.837 36.18V39.84H151.897C152.437 39.9 152.977 41.1 152.977 42C152.917 43.02 152.317 44.1 151.837 44.1L133.837 44.16Z" fill="black"/>
</svg>
